# xmcd
#
# Track frame offsets:
#	150
#	10490
#	24131
#	36985
#	48425
#	60452
#	74820
#	87243
#	98464
#	108281
#	117542
#	127078
#	139677
#	149068
#	159244
#	169974
#	183773
#	192136
#	205618
#	217583
#	230166
#	246412
#	258378
#	273487
#	286074
#
# Disc length: 3997 seconds
#
# Revision: 0
# Processed by: cddbd v1.5.2PL0 Copyright (c) Steve Scherf et al.
# Submitted via: audiograbber 1.83.01
#
DISCID=6c0f9b19
DTITLE=Various Artist - Seaside Special 1 CD3
DYEAR=2013
DGENRE=Oldies
TTITLE0=Joe Brown - A Picture Of You
TTITLE1=Morecambe and Wise - We're The Guys
TTITLE2=Bernard Bresslaw - Mad Passionate Love
TTITLE3=Beverley Sisters - Sisters
TTITLE4=Harry Secombe - Stranger In Paradise
TTITLE5=Max Wall - What Was That, That You Said?
TTITLE6=Kenny Ball and His Jazzmen - March Of The Siamese Children
TTITLE7=Charlie Drake - Hello My Darlings
TTITLE8=Tommy Cooper - How Come There's No Dog Day?
TTITLE9=Jim Dale - Be My Girl
TTITLE10=Jimmy Edwards and Enid Lowe - A List Of The Bare Necessities
TTITLE11=Tommy Steele - What A Mouth (What A North And South)
TTITLE12=Adam Faith - Someone Else's Baby
TTITLE13=Edna Savage - Arrividerci Darling
TTITLE14=Michael Holliday - Starry Eyed
TTITLE15=Norman Wisdom - Beware
TTITLE16=Russ Conway - Side Saddle
TTITLE17=Benny Hill - Transistor Radio
TTITLE18=Tessie O'Shea - It All Belongs To Me
TTITLE19=Lonnie Donegan - Does Your Chewing Gum Lose Its Flavour?
TTITLE20=Acker Bilk - Buona Sera
TTITLE21=Cliff Richard - Living Doll
TTITLE22=Frankie Howerd - Three Little Fishes
TTITLE23=Winifred Atwell - Let's Have Another Party
TTITLE24=Eric Sykes and Hattie Jacques - We Go Together
EXTD=All tracks Mono
EXTT0=
EXTT1=
EXTT2=
EXTT3=
EXTT4=
EXTT5=
EXTT6=
EXTT7=
EXTT8=
EXTT9=
EXTT10=
EXTT11=
EXTT12=
EXTT13=
EXTT14=
EXTT15=
EXTT16=
EXTT17=
EXTT18=
EXTT19=
EXTT20=
EXTT21=
EXTT22=
EXTT23=
EXTT24=
PLAYORDER=
